<?xml version="1.0" encoding="UTF-8"?>
<svg version="1.1" xmlns="http://www.w3.org/2000/svg" width="1024" height="1024">
<path d="M0 0 C337.92 0 675.84 0 1024 0 C1024 337.92 1024 675.84 1024 1024 C686.08 1024 348.16 1024 0 1024 C0 686.08 0 348.16 0 0 Z " fill="#FDFDFD" transform="translate(0,0)"/>
<path d="M0 0 C4.86663088 0.83284227 8.83994953 3.33695924 13.05078125 5.81152344 C14.01419434 6.35736084 14.97760742 6.90319824 15.97021484 7.46557617 C18.84345039 9.10113588 21.69944352 10.76313378 24.55078125 12.43652344 C25.32583008 12.88946777 26.10087891 13.34241211 26.89941406 13.80908203 C29.68010842 15.43712764 32.45708371 17.07102347 35.22558594 18.71972656 C41.34097082 22.35371531 47.56451658 25.77336251 53.80883789 29.1796875 C60.1198408 32.62967811 66.37546084 36.16857795 72.61328125 39.74902344 C80.84289436 44.47255321 80.84289436 44.47255321 89.11328125 49.12402344 C89.89832031 49.56101563 90.68335938 49.99800781 91.4921875 50.44824219 C93.50652891 51.41527896 95.36776958 51.98606071 97.55078125 52.43652344 C97.95719849 51.57498657 97.95719849 51.57498657 98.37182617 50.69604492 C100.45941324 46.69508856 103.22208079 43.14862895 105.86328125 39.49902344 C106.43240234 38.70044922 107.00152344 37.901875 107.58789062 37.07910156 C113.71396233 28.58981505 118.04687948 24.04292998 128.65446472 22.2951355 C129.42849136 22.17421539 130.20251801 22.05329529 131 21.92871094 C131.81265823 21.79836456 132.62531647 21.66801819 133.46260071 21.53372192 C135.17926837 21.26023731 136.89642105 20.98978201 138.61401367 20.72216797 C141.21378433 20.31535671 143.81093927 19.89416334 146.40820312 19.47167969 C168.3642307 15.95945502 168.3642307 15.95945502 173.34375 19.32324219 C176.26735837 23.44734108 178.59302941 27.73878979 180.86328125 32.24902344 C181.54487305 33.57450195 181.54487305 33.57450195 182.24023438 34.92675781 C183.35235502 37.09246643 184.45551647 39.26225546 185.55078125 41.43652344 C195.43510109 40.80121046 205.11439964 39.10457186 214.86328125 37.43652344 C216.49668016 37.16009959 218.13014336 36.88405535 219.76367188 36.60839844 C222.75601873 36.10292556 225.74798095 35.59529799 228.73950195 35.08496094 C229.99722412 34.87097656 231.25494629 34.65699219 232.55078125 34.43652344 C233.64849854 34.24735352 234.74621582 34.05818359 235.87719727 33.86328125 C238.67036228 33.4174359 241.34836965 33.23431068 244.17578125 33.18652344 C245.09617187 33.16074219 246.0165625 33.13496094 246.96484375 33.10839844 C250.1457912 33.51202319 251.44189968 34.00091373 253.55078125 36.43652344 C254.55590309 42.88112818 252.12513599 48.68196248 250.11328125 54.74902344 C248.8286722 58.62320084 247.63974429 62.50285283 246.55078125 66.43652344 C246.2767749 67.27723389 246.00276855 68.11794434 245.72045898 68.98413086 C245.05346285 71.82430728 244.89841593 73.57985869 245.55078125 76.43652344 C248.65747855 80.91399333 252.49686575 84.46347764 256.48828125 88.12402344 C257.53565916 89.12471433 258.58060723 90.12795492 259.62304688 91.13378906 C263.87266713 95.20713922 268.20793912 99.17229732 272.671875 103.01074219 C277.59670568 107.26559719 282.11072132 111.92802183 286.67578125 116.56152344 C288.40510465 118.31654258 290.1368122 120.0692162 291.87109375 121.81933594 C292.68094727 122.63692383 293.49080078 123.45451172 294.32519531 124.296875 C296.13032815 126.03230548 297.90687841 127.51540139 299.91796875 128.99121094 C306.03648954 134.67399138 307.28271735 142.58469334 308.30078125 150.56152344 C308.42582031 151.39683594 308.55085938 152.23214844 308.6796875 153.09277344 C310.57257165 166.94618933 310.08347596 177.55393942 303.80078125 190.18652344 C303.21278579 191.42589702 302.62804764 192.6668206 302.04638672 193.90917969 C300.84350077 196.47083792 299.62751665 199.02553216 298.39941406 201.57519531 C295.96632135 206.63882313 293.61123051 211.73701827 291.29589844 216.85546875 C290.23526737 219.1998534 289.16088688 221.53807773 288.07128906 223.86914062 C287.35344238 225.44937012 287.35344238 225.44937012 286.62109375 227.06152344 C286.19586426 227.98191406 285.77063477 228.90230469 285.33251953 229.85058594 C284.38123442 232.9973729 284.36836113 234.36300435 285.55078125 237.43652344 C287.31936769 239.50962864 289.0417408 241.32387983 291.01171875 243.18261719 C291.5580899 243.71621353 292.10446106 244.24980988 292.66738892 244.79957581 C294.41090164 246.50094864 296.16688203 248.18857222 297.92578125 249.87402344 C299.67669437 251.55668471 301.42426065 253.24226065 303.16275024 254.9377594 C304.24268561 255.99064828 305.32973502 257.03630643 306.42489624 258.073349 C313.55178154 265.01187151 314.21934721 271.66790298 315.12890625 281.17480469 C315.33197614 283.1414332 315.53504704 285.10806161 315.73815632 287.07468605 C316.02713062 289.90284298 316.30505413 292.73205532 316.5837822 295.56123734 C316.9479402 299.23268106 317.3248971 302.90280475 317.70141602 306.57299805 C318.17114832 311.15632786 318.64023101 315.73971273 319.10426331 320.32362366 C320.20747367 331.20540411 321.36801556 342.08003196 322.5625 352.95214844 C322.72667591 354.45049078 322.89080994 355.94883771 323.05490112 357.44718933 C323.68668829 363.21206969 324.31892306 368.97689331 324.9588623 374.74087524 C325.2593308 377.44848531 325.55726295 380.15635016 325.85224915 382.86456299 C326.11838457 385.30757438 326.3881095 387.75019877 326.66227722 390.19232178 C328.49056572 407.10756538 328.49056572 407.10756538 325.25 415.56152344 C325.01295853 416.1933252 324.77591705 416.82512695 324.5316925 417.47607422 C323.78096949 419.46844328 323.01045683 421.45238373 322.23828125 423.43652344 C321.48342697 425.41719912 320.7327385 427.39941612 319.9825592 429.38186646 C319.49768345 430.65909275 319.00947824 431.93506049 318.51780701 433.20968628 C317.20243474 436.63206081 316.02646382 440.05857873 314.97265625 443.56933594 C313.75163108 447.32620098 312.05358406 449.60426318 309.11328125 452.31152344 C308.35144531 453.03082031 307.58960938 453.75011719 306.8046875 454.49121094 C301.07487764 459.43652344 301.07487764 459.43652344 298.55078125 459.43652344 C298.79199707 460.23533936 299.03321289 461.03415527 299.28173828 461.85717773 C303.77353212 476.74545589 308.23177496 491.63786617 312.45703125 506.60449219 C313.11076898 508.89490901 313.79756267 511.17686771 314.55078125 513.43652344 C315.53958293 517.91411597 315.33585662 521.16447915 312.89453125 525.12011719 C308.29213809 530.83259461 303.12101715 535.9867496 297.8828125 541.11230469 C295.26396941 543.72237444 292.85055825 546.45165472 290.4453125 549.25683594 C288.11037287 551.94322009 285.70982014 554.56681929 283.30078125 557.18652344 C282.59598633 557.95307251 282.59598633 557.95307251 281.87695312 558.73510742 C280.91346563 559.78242617 279.94975943 560.82954377 278.98583984 561.87646484 C277.14251894 563.88034722 275.3039949 565.88859379 273.46557617 567.89697266 C268.98243057 572.7937105 264.48888871 577.6808315 259.98828125 582.56152344 C259.47531494 583.11831787 258.96234863 583.6751123 258.43383789 584.2487793 C252.74621944 590.41156345 252.74621944 590.41156345 250.33758545 590.71917725 C243.38940128 590.71309971 237.20740792 589.72303282 230.50390625 587.95214844 C229.48963562 587.69528259 228.47536499 587.43841675 227.43035889 587.17376709 C224.21723384 586.35688763 221.00911307 585.52200635 217.80078125 584.68652344 C215.66566627 584.14107031 213.53025125 583.59679029 211.39453125 583.05371094 C195.95871606 579.1146923 195.95871606 579.1146923 188.88452148 577.15112305 C188.19610168 576.96132874 187.50768188 576.77153442 186.79840088 576.57598877 C185.03384515 576.0860926 183.27202378 575.58637519 181.51049805 575.08569336 C176.64631699 574.01880749 172.39497708 574.51503836 167.55078125 575.43652344 C166.91962402 575.55511719 166.2884668 575.67371094 165.63818359 575.79589844 C161.46105937 576.57905672 161.46105937 576.57905672 157.29516602 577.41918945 C146.83836088 579.54673048 146.83836088 579.54673048 142.2890625 577.33886719 C136.89694533 571.43783109 134.79643739 561.20471762 132.21095276 553.69493103 C127.78347541 540.8460798 122.91480049 528.17811734 118.00219727 515.50854492 C116.93209516 512.74527618 115.86804337 509.97973757 114.8046875 507.21386719 C114.47666641 506.3733934 114.14864532 505.53291962 113.8106842 504.66697693 C113.51294601 503.89088577 113.21520782 503.11479462 112.90844727 502.31518555 C112.64532242 501.63604599 112.38219757 500.95690643 112.11109924 500.25718689 C111.55078125 498.43652344 111.55078125 498.43652344 111.55078125 495.43652344 C110.60976563 495.94183594 109.66875 496.44714844 108.69921875 496.96777344 C107.44174106 497.62466477 106.18390956 498.2808791 104.92578125 498.93652344 C104.30832031 499.27039063 103.69085937 499.60425781 103.0546875 499.94824219 C99.05222626 502.01266957 96.04320782 503.11757281 91.55078125 502.43652344 C89.25 501.01074219 89.25 501.01074219 87.23828125 499.12402344 C86.22314453 498.20169922 86.22314453 498.20169922 85.1875 497.26074219 C83.55078125 495.43652344 83.55078125 495.43652344 82.55078125 492.43652344 C81.22739493 491.75032312 79.89208844 491.08699807 78.55078125 490.43652344 C77.06552877 489.11324859 75.631205 487.7316624 74.23828125 486.31152344 C73.52027344 485.58707031 72.80226563 484.86261719 72.0625 484.11621094 C70.17930694 482.10708118 68.39186482 480.0815914 66.609375 477.98730469 C61.04865716 471.59281628 54.9355005 465.71638695 48.92578125 459.74902344 C47.69898393 458.52725397 46.47241972 457.30525039 45.24609375 456.08300781 C42.99411139 453.8391272 40.74079488 451.596606 38.48583984 449.35571289 C37.99194763 448.8644693 37.49805542 448.37322571 36.98919678 447.86709595 C35.5943455 446.47985015 34.19879528 445.09330723 32.80322266 443.70678711 C26.85402867 437.71052059 24.38933022 432.69562384 24.13671875 424.18261719 C24.09804688 422.99732422 24.059375 421.81203125 24.01953125 420.59082031 C23.973125 418.75100586 23.973125 418.75100586 23.92578125 416.87402344 C23.88710938 415.67455078 23.8484375 414.47507812 23.80859375 413.23925781 C23.73562673 410.82483108 23.67949567 408.40983729 23.64013672 405.99462891 C23.58171595 403.6683332 23.46330917 401.34257482 23.27783203 399.02294922 C22.74645149 390.0636878 25.23237692 385.39875827 30.67578125 378.43652344 C32.153217 376.43682673 33.62843247 374.43548794 35.1015625 372.43261719 C35.84873535 371.43472168 36.5959082 370.43682617 37.36572266 369.40869141 C40.69570699 364.87916858 43.78023762 360.19854202 46.86328125 355.49902344 C51.43277954 348.59521948 56.05697506 341.73519184 60.77270508 334.93041992 C62.8512825 331.92699057 64.90667098 328.91379276 66.90234375 325.85449219 C67.61132812 324.7678125 68.3203125 323.68113281 69.05078125 322.56152344 C69.65921875 321.61535156 70.26765625 320.66917969 70.89453125 319.69433594 C72.55078125 317.43652344 72.55078125 317.43652344 75.55078125 315.43652344 C80.38508715 315.04977897 84.51549459 315.80401751 89.1640625 316.93261719 C92.36148246 317.60768621 95.54433017 317.866631 98.80078125 318.09277344 C101.09254408 318.37924379 103.22303953 318.78845571 105.46875 319.30371094 C111.89252469 320.77557645 118.37692703 321.90360654 124.86328125 323.06152344 C126.12462891 323.29097656 127.38597656 323.52042969 128.68554688 323.75683594 C130.50022461 324.08167969 130.50022461 324.08167969 132.3515625 324.41308594 C133.44637939 324.6098291 134.54119629 324.80657227 135.66918945 325.00927734 C138.72472333 325.53429949 138.72472333 325.53429949 142.55078125 325.43652344 C140.80721629 324.09863944 139.06341436 322.76106345 137.31860352 321.42480469 C135.78892404 320.25230841 134.26079901 319.07778172 132.73413086 317.90136719 C128.93790399 314.98521553 125.12740425 312.11153151 121.2109375 309.35839844 C112.13137396 302.92307741 102.21917462 295.44170355 98.55078125 284.43652344 C94.71607631 285.17961219 90.88332298 285.9323639 87.05078125 286.68652344 C85.99246094 286.89148438 84.93414063 287.09644531 83.84375 287.30761719 C77.75739895 288.51030931 71.72982841 289.85936436 65.71875 291.39355469 C58.33262039 293.27840922 50.90962292 294.90014717 43.44543457 296.44308472 C32.91889661 298.62173926 22.42281294 300.88050381 11.98217773 303.44311523 C1.00615899 306.10386965 -10.05399373 308.40289955 -21.09863281 310.75854492 C-21.89057037 310.92803146 -22.68250793 311.09751801 -23.4984436 311.2721405 C-25.00004651 311.59335809 -26.50196603 311.91310018 -28.00424194 312.2311554 C-30.88217335 312.84703745 -33.65416663 313.5048394 -36.44921875 314.43652344 C-49.54057916 316.27690309 -60.79639748 311.82056304 -73.00878906 307.60400391 C-78.78701758 305.64321135 -84.61776495 303.85646054 -90.44921875 302.06152344 C-91.63354492 301.69406006 -92.81787109 301.32659668 -94.03808594 300.94799805 C-100.80925678 298.85059318 -107.58964227 296.78693051 -114.37890625 294.74902344 C-115.12626038 294.52427338 -115.8736145 294.29952332 -116.64361572 294.06796265 C-120.28560796 292.97281709 -123.92869298 291.88166604 -127.57421875 290.79833984 C-128.90499793 290.39925527 -130.23572946 290.00001176 -131.56640625 289.60058594 C-133.30833252 289.08165771 -133.30833252 289.08165771 -135.08544922 288.55224609 C-148.56166047 284.08234586 -152.76286114 275.46009053 -159.07421875 263.31152344 C-160.30271917 260.9888667 -161.53322849 258.66727152 -162.765625 256.34667969 C-163.38066895 255.18668457 -163.99571289 254.02668945 -164.62939453 252.83154297 C-167.34758175 247.76055941 -170.16801191 242.7504286 -173.01171875 237.74902344 C-173.53781738 236.8224292 -174.06391602 235.89583496 -174.60595703 234.94116211 C-176.21832137 232.1051064 -177.83348286 229.27065951 -179.44921875 226.43652344 C-181.78598661 222.33429909 -184.11854832 218.22971438 -186.44921875 214.12402344 C-186.97717041 213.19952393 -187.50512207 212.27502441 -188.04907227 211.32250977 C-198.8607541 192.27615814 -198.8607541 192.27615814 -197.44921875 185.43652344 C-196.60961553 182.64031182 -195.69891521 179.87965416 -194.72338867 177.12792969 C-192.11716166 169.73214588 -190.09158656 162.18463991 -188.03686523 154.62036133 C-186.35666269 148.48983991 -184.4803633 142.47121868 -182.43774414 136.45239258 C-180.76551705 131.35063381 -179.36552371 126.17651177 -177.94921875 120.99902344 C-173.73696313 105.78512404 -173.73696313 105.78512404 -171.3984375 98.48339844 C-170.66365926 96.12485099 -169.98939865 93.77272928 -169.34375 91.38964844 C-167.10555944 83.33585429 -164.84188252 77.11889123 -158.44921875 71.43652344 C-157.69511719 70.72496094 -156.94101562 70.01339844 -156.1640625 69.28027344 C-151.02388332 64.52296022 -145.62956358 60.10199977 -140.18359375 55.70214844 C-136.65501549 52.77846931 -133.28687976 49.69917334 -129.93359375 46.57714844 C-124.17652704 41.61665699 -119.50055938 38.7101447 -111.9921875 37.22558594 C-111.18370361 37.05176392 -110.37521973 36.87794189 -109.54223633 36.69885254 C-106.91015099 36.13710866 -104.27381869 35.5991843 -101.63671875 35.06152344 C-99.8028375 34.67477753 -97.96926245 34.28657695 -96.13598633 33.89697266 C-90.57821271 32.72139328 -85.01421811 31.57731307 -79.44921875 30.43652344 C-77.76426267 30.08915932 -76.07936472 29.74151303 -74.39453125 29.39355469 C-61.67476398 26.76833096 -61.67476398 26.76833096 -56.5144043 25.73193359 C-49.72454734 24.35975552 -43.00588731 22.85265301 -36.29614258 21.1328125 C-31.63105206 19.99184362 -26.92141208 19.11712336 -22.19921875 18.24902344 C-21.25175781 18.07177734 -20.30429687 17.89453125 -19.328125 17.71191406 C-17.03573884 17.28353887 -14.74280222 16.85843192 -12.44921875 16.43652344 C-12.26746094 15.53289062 -12.08570313 14.62925781 -11.8984375 13.69824219 C-11.64707031 12.51875 -11.39570313 11.33925781 -11.13671875 10.12402344 C-10.89308594 8.95226562 -10.64945313 7.78050781 -10.3984375 6.57324219 C-8.60523069 0.64754233 -5.82512988 -0.20938472 0 0 Z " fill="#050505" transform="translate(432.44921875,191.5634765625)"/>
<path d="M0 0 C0.99427002 0.53866699 1.98854004 1.07733398 3.01293945 1.63232422 C4.0618335 2.2048291 5.11072754 2.77733398 6.19140625 3.3671875 C7.2796167 3.95902832 8.36782715 4.55086914 9.48901367 5.16064453 C15.95926378 8.68899427 22.38385863 12.27915939 28.765625 15.96484375 C35.60161661 19.89088263 42.5094077 23.69169984 49.4074707 27.50732422 C49.98775528 27.82832092 50.56803986 28.14931763 51.16590881 28.4800415 C51.74408859 28.79987 52.32226837 29.11969849 52.91796875 29.44921875 C57.23877452 31.84016168 61.54613782 34.25215546 65.83984375 36.69140625 C66.76007324 37.20985107 67.68030273 37.7282959 68.62841797 38.26245117 C70.34030412 39.22727747 72.04790879 40.19975223 73.75048828 41.1809082 C74.50442871 41.60331787 75.25836914 42.02572754 76.03515625 42.4609375 C76.68548828 42.83154297 77.33582031 43.20214844 78.00585938 43.58398438 C79.95181096 44.52635482 79.95181096 44.52635482 82.75390625 43.2421875 C84.0889982 41.7896485 84.0889982 41.7896485 85.28515625 39.953125 C85.76090088 39.26565186 86.23664551 38.57817871 86.72680664 37.86987305 C87.23074951 37.12648682 87.73469238 36.38310059 88.25390625 35.6171875 C89.32428638 34.06815668 90.39592888 32.5199975 91.46875 30.97265625 C92.01257324 30.18552246 92.55639648 29.39838867 93.11669922 28.58740234 C95.62620096 24.9926702 98.2149023 21.45815397 100.81640625 17.9296875 C101.49509766 17.00712158 101.49509766 17.00712158 102.1875 16.06591797 C103.37366356 14.45606038 104.56360688 12.84898956 105.75390625 11.2421875 C106.16253906 10.49066406 106.57117188 9.73914063 106.9921875 8.96484375 C109.98883088 6.03464479 113.85864167 5.7444456 117.87890625 4.9921875 C118.69617188 4.81945312 119.5134375 4.64671875 120.35546875 4.46875 C125.90898439 3.36156175 131.09507119 3.0827837 136.75390625 3.2421875 C141.51770251 11.52442211 146.22164363 19.8300334 150.75390625 28.2421875 C156.42377045 27.73720523 161.97747189 26.88227443 167.5703125 25.83203125 C168.27554047 25.69987213 168.98076843 25.56771301 169.70736694 25.43154907 C172.6544809 24.87652559 175.60075483 24.31739416 178.5456543 23.75073242 C180.71938027 23.33391585 182.89466728 22.92619376 185.0703125 22.51953125 C186.35365479 22.27452881 187.63699707 22.02952637 188.95922852 21.77709961 C192.98628638 21.20943032 196.69521778 21.15013013 200.75390625 21.2421875 C199.55439287 26.31705182 198.146696 31.17359347 196.33984375 36.06640625 C195.62007608 38.73914352 195.30230371 40.48614585 195.75390625 43.2421875 C197.48498939 45.18172568 199.08745898 46.72308341 201.06640625 48.3671875 C202.17396252 49.33093956 203.27938244 50.29715144 204.3828125 51.265625 C204.94629395 51.75643555 205.50977539 52.24724609 206.09033203 52.75292969 C209.55095869 55.85093712 212.7461619 59.2153804 215.98828125 62.5390625 C218.0082179 64.51335087 220.01247973 66.32850957 222.16015625 68.1484375 C228.96567213 74.04355936 235.17435758 80.59695041 241.50390625 86.9921875 C244.09995415 89.61488757 246.69934225 92.234211 249.30078125 94.8515625 C250.18367828 95.74690704 250.18367828 95.74690704 251.08441162 96.66033936 C253.35271408 98.94215489 255.50521239 101.06040701 258.10766602 102.96264648 C259.75390625 104.2421875 259.75390625 104.2421875 260.546875 107.10546875 C260.67707031 108.24371094 260.80726563 109.38195312 260.94140625 110.5546875 C261.07933594 111.66457031 261.21726562 112.77445312 261.359375 113.91796875 C261.43599365 114.89854248 261.43599365 114.89854248 261.51416016 115.89892578 C261.72786846 118.35030448 261.72786846 118.35030448 262.33349609 121.15966797 C264.1717735 133.02617308 259.29415945 141.41208376 254.00390625 151.7421875 C253.15465816 153.45690309 252.30828128 155.17304384 251.46484375 156.890625 C249.57869098 160.71639365 247.66365751 164.52614999 245.72766113 168.3269043 C244.38965269 170.9586396 243.0708884 173.59988128 241.75390625 176.2421875 C236.07994189 174.08505871 230.88715919 171.81381575 226.75390625 167.2421875 C225.52518349 162.78806748 226.14744009 158.77668833 226.75390625 154.2421875 C226.86393502 152.76846879 226.97055552 151.29449265 227.07421875 149.8203125 C227.9552147 140.45043989 229.84113875 134.41522806 237.08129883 128.12084961 C238.76155843 126.69436172 238.76155843 126.69436172 240.75390625 124.2421875 C240.72241951 120.9790003 240.72241951 120.9790003 239.75390625 118.2421875 C225.42187531 113.05300388 213.55791186 110.2535232 199.25390625 116.2421875 C188.57753308 120.71206934 182.01705053 120.63319725 171.00390625 117.2421875 C169.13516397 116.67621098 167.26541144 116.1135564 165.39453125 115.5546875 C164.57500977 115.30332031 163.75548828 115.05195313 162.91113281 114.79296875 C160.64051891 114.11849588 160.64051891 114.11849588 157.75390625 114.2421875 C157.41557185 116.61656999 157.08311623 118.99153709 156.75390625 121.3671875 C156.61082031 122.36492187 156.61082031 122.36492187 156.46484375 123.3828125 C156.19730997 125.33198721 155.97507552 127.2872091 155.75390625 129.2421875 C155.59277344 130.26441406 155.43164062 131.28664063 155.265625 132.33984375 C156.03430941 136.90890387 159.05713167 138.76483312 162.56640625 141.5546875 C163.25275146 142.12372803 163.93909668 142.69276855 164.64624023 143.27905273 C166.6688987 144.95047817 168.70885535 146.59828915 170.75390625 148.2421875 C172.60818102 149.76288903 174.46236192 151.28370503 176.31640625 152.8046875 C177.1878125 153.51109375 178.05921875 154.2175 178.95703125 154.9453125 C184.02844389 159.11010388 188.98438468 163.41038412 193.95556641 167.69384766 C196.88392795 170.21511685 199.81919974 172.72830993 202.75390625 175.2421875 C203.9206074 176.24214727 205.08727404 177.24214731 206.25390625 178.2421875 C207.12015625 178.9846875 207.12015625 178.9846875 208.00390625 179.7421875 C227.25390625 196.2421875 227.25390625 196.2421875 229.00415039 197.74243164 C230.16995729 198.74167146 231.33581011 199.74085773 232.50170898 200.73999023 C235.43191023 203.25118211 238.36128916 205.76332143 241.2890625 208.27734375 C247.11820485 213.28134165 252.95566284 218.27521376 258.81640625 223.2421875 C259.34049072 223.68699463 259.8645752 224.13180176 260.40454102 224.59008789 C262.77439388 226.59505317 265.15515435 228.54790034 267.625 230.4296875 C268.32753906 231.0278125 269.03007813 231.6259375 269.75390625 232.2421875 C269.75390625 232.9021875 269.75390625 233.5621875 269.75390625 234.2421875 C267.70460099 235.17368989 265.65528976 236.10517912 263.60595703 237.03662109 C261.71231355 237.8974284 259.81876197 238.75843789 257.92529297 239.61962891 C252.42914425 242.1189756 246.93172339 244.61544482 241.43180847 247.10649109 C238.48034697 248.4435048 235.52944125 249.7817427 232.57858276 251.12008667 C231.1222281 251.78024394 229.66562736 252.43985865 228.20877075 253.09890747 C226.13202069 254.0384711 224.05616252 254.97998053 221.98046875 255.921875 C221.32937134 256.21594742 220.67827393 256.51001984 220.00744629 256.81300354 C216.68135981 258.32469679 213.43635758 259.92070851 210.2265625 261.6640625 C206.38454607 263.41004072 203.76215115 263.71963632 199.56640625 263.6171875 C198.39722656 263.60429687 197.22804688 263.59140625 196.0234375 263.578125 C192.81290396 263.24824939 190.69174953 262.50904728 187.75390625 261.2421875 C185.34527787 260.60673139 182.92733987 260.00611149 180.50390625 259.4296875 C173.02836929 257.61857673 165.66632335 255.50492539 158.30078125 253.29296875 C157.1303125 252.94621094 155.95984375 252.59945313 154.75390625 252.2421875 C154.04363281 251.9534375 153.33335937 251.6646875 152.6015625 251.3671875 C149.48410358 251.15628119 147.8202615 253.05553987 145.44140625 254.9296875 C144.47203125 255.66316406 143.50265625 256.39664062 142.50390625 257.15234375 C141.59640625 257.84199219 140.68890625 258.53164063 139.75390625 259.2421875 C137.37673191 260.96653934 135.48601731 262.06362979 132.75390625 263.2421875 C120.58121856 260.39662414 109.49828039 251.4208135 102.75390625 241.2421875 C101.90091787 240.00869774 101.04525076 238.77705783 100.1875 237.546875 C98.28919291 234.81367361 96.40836184 232.06952061 94.5390625 229.31640625 C92.01525523 225.60871978 89.43315112 221.94720478 86.81640625 218.3046875 C83.16420316 213.21932305 79.54400787 208.11281495 75.94140625 202.9921875 C71.16697329 196.21278584 66.33216167 189.47901616 61.46948242 182.76269531 C58.21485924 178.26717085 54.9742281 173.76234118 51.75390625 169.2421875 C47.94218967 163.89313582 44.10279511 158.5645489 40.25390625 153.2421875 C36.40501519 147.91982306 32.56598712 142.59098172 28.75390625 137.2421875 C24.86926146 131.79664073 20.97482529 126.35820178 17.06640625 120.9296875 C16.51251221 120.16011719 15.95861816 119.39054687 15.38793945 118.59765625 C11.98607743 113.89092146 8.51013268 109.266735 4.828125 104.7734375 C3.75390625 103.2421875 3.75390625 103.2421875 3.75390625 101.2421875 C2.8825 102.03625 2.01109375 102.8303125 1.11328125 103.6484375 C-0.08851724 104.68123308 -1.29171942 105.71239684 -2.49609375 106.7421875 C-3.06328125 107.26683594 -3.63046875 107.79148437 -4.21484375 108.33203125 C-9.93710697 113.12131677 -15.03959441 112.8749218 -22.24609375 112.2421875 C-28.0918759 111.71790211 -33.91082962 111.01956718 -39.73632812 110.30859375 C-53.73862231 107.82829169 -53.73862231 107.82829169 -66.8515625 111.140625 C-67.70363281 111.95789063 -68.55570312 112.77515625 -69.43359375 113.6171875 C-70.31402344 114.42929687 -71.19445312 115.24140625 -72.1015625 116.078125 C-72.80925781 116.79226563 -73.51695312 117.50640625 -74.24609375 118.2421875 C-76.24609375 120.2421875 -76.24609375 120.2421875 -78.8972168 120.37744141 C-80.00621338 120.32507324 -81.11520996 120.27270508 -82.2578125 120.21875 C-83.4847583 120.16710693 -84.7117041 120.11546387 -85.97583008 120.06225586 C-87.28189209 119.9978833 -88.5879541 119.93351074 -89.93359375 119.8671875 C-92.57674191 119.75459247 -95.21997173 119.64389741 -97.86328125 119.53515625 C-99.13655273 119.48149902 -100.40982422 119.4278418 -101.72167969 119.37255859 C-107.89884841 119.14405983 -114.0660289 119.14612432 -120.24609375 119.2421875 C-116.7190909 122.8683873 -113.14642206 126.38143505 -109.30859375 129.6796875 C-105.77974612 132.71898401 -102.51604348 135.95235597 -99.25 139.26953125 C-96.67140763 141.80791166 -93.94817112 144.14868916 -91.203125 146.50390625 C-88.57513986 148.83814455 -86.1302048 151.32983046 -83.69140625 153.859375 C-80.63981395 156.77900655 -78.00737522 156.33958223 -73.9230957 156.28881836 C-72.57677002 156.27603659 -71.23044106 156.26359674 -69.8841095 156.25144958 C-68.81019927 156.23957517 -68.81019927 156.23957517 -67.71459389 156.22746086 C-63.09972433 156.18518699 -58.48459095 156.19718944 -53.86956501 156.19734859 C-49.82832756 156.1943689 -45.78864303 156.17411596 -41.74780273 156.11547852 C-8.25050859 155.65690721 -8.25050859 155.65690721 3.75390625 167.2421875 C5.28913082 168.302935 6.84747215 169.33190998 8.4375 170.30859375 C15.92243366 175.24388249 22.34319152 179.98782183 27.75390625 187.2421875 C28.25599609 187.91314453 28.75808594 188.58410156 29.27539062 189.27539062 C32.29824493 193.32539497 35.29008307 197.39666972 38.26171875 201.484375 C42.00394331 206.61686162 45.90531579 211.61100941 49.86328125 216.578125 C51.65818663 219.10730985 52.66538352 221.36176108 53.75390625 224.2421875 C33.19179378 228.91637018 12.6095974 233.48960441 -7.99346924 237.97955322 C-11.4716933 238.73770018 -14.94971822 239.49675932 -18.42773438 240.25585938 C-19.11019163 240.40480211 -19.79264889 240.55374485 -20.49578667 240.707201 C-26.28758292 241.97139296 -32.07897934 243.23740755 -37.87017822 244.5043335 C-40.01772497 244.97371016 -42.16545112 245.44226732 -44.31341553 245.909729 C-46.89957673 246.47259179 -49.4850455 247.03851589 -52.0703125 247.60546875 C-52.79265579 247.76178268 -53.51499908 247.91809662 -54.25923157 248.07914734 C-57.85159693 248.86489552 -57.85159693 248.86489552 -61.24609375 250.2421875 C-66.95558466 250.67093525 -71.0958066 249.52073704 -76.30859375 247.4921875 C-82.66010442 245.06785237 -89.065612 243.12294312 -95.61206055 241.28662109 C-102.54702967 239.29348721 -109.38462607 236.99365686 -116.23852539 234.74047852 C-122.19959107 232.8002441 -128.15065298 230.96046594 -134.21875 229.3828125 C-135.30945801 229.09317627 -136.40016602 228.80354004 -137.52392578 228.50512695 C-139.57419118 227.96951056 -141.63114842 227.45866311 -143.69482422 226.97729492 C-148.33020771 225.75270897 -151.40699079 224.79437521 -154.0625 220.65625 C-154.81612728 219.19792361 -155.54292056 217.72550048 -156.24609375 216.2421875 C-157.12559578 214.64386651 -158.01130726 213.04895078 -158.90234375 211.45703125 C-159.85218562 209.69895544 -160.80000821 207.93978758 -161.74609375 206.1796875 C-165.99968259 198.32037229 -170.33195979 190.51239083 -174.74609375 182.7421875 C-175.82184869 180.83476743 -176.89736901 178.92721502 -177.97265625 177.01953125 C-180.20887397 173.05655398 -182.48080005 169.11644115 -184.76953125 165.18359375 C-185.88744109 163.22437032 -187.00465347 161.26474872 -188.12109375 159.3046875 C-188.65154297 158.41136719 -189.18199219 157.51804687 -189.72851562 156.59765625 C-192.26010624 152.10160598 -194.01507438 148.752461 -192.87255859 143.4519043 C-192.6658252 142.72269775 -192.4590918 141.99349121 -192.24609375 141.2421875 C-191.87991943 139.85737183 -191.87991943 139.85737183 -191.50634766 138.44458008 C-190.59573465 135.1516693 -189.61702055 131.88527534 -188.62109375 128.6171875 C-188.26499023 127.43092773 -187.90888672 126.24466797 -187.54199219 125.02246094 C-184.99005592 116.56506789 -182.32030454 108.14799373 -179.60864258 99.74072266 C-178.04200015 94.85243864 -176.5909219 89.96470887 -175.30859375 84.9921875 C-174.82586757 83.17689368 -174.34286691 81.36167038 -173.85644531 79.54736328 C-173.38845725 77.77986595 -172.93154403 76.00943311 -172.47949219 74.23779297 C-165.91100936 48.88581893 -165.91100936 48.88581893 -154.24609375 41.2421875 C-152.39817492 39.76019319 -150.56477599 38.25991805 -148.74609375 36.7421875 C-147.81796875 36.01386719 -146.88984375 35.28554688 -145.93359375 34.53515625 C-143.19905337 32.32542759 -143.19905337 32.32542759 -141.05859375 29.66796875 C-133.12333673 20.70059215 -123.48463712 19.66209967 -112.15394592 17.56257629 C-102.41684032 15.74638598 -92.75108573 13.58283897 -83.07321167 11.47802734 C-79.68775541 10.74309094 -76.30123008 10.013299 -72.91430664 9.28515625 C-61.65374822 6.86280612 -50.40190842 4.41683776 -39.18359375 1.8046875 C-38.20229492 1.57716797 -37.22099609 1.34964844 -36.20996094 1.11523438 C-31.76190345 0.07906568 -27.32167208 -0.98335019 -22.88671875 -2.07421875 C-21.23569836 -2.46883902 -19.584658 -2.86337575 -17.93359375 -3.2578125 C-17.21486084 -3.4427124 -16.49612793 -3.6276123 -15.75561523 -3.81811523 C-9.309915 -5.33757701 -5.60183212 -3.04098009 0 0 Z " fill="#FDFDFD" transform="translate(454.24609375,231.7578125)"/>
<path d="M0 0 C2.9369077 0.43395263 5.82003 1.0418414 8.71875 1.6796875 C17.05033187 3.42687097 25.40058391 5.01366581 33.78125 6.5078125 C34.9787085 6.72153503 36.17616699 6.93525757 37.40991211 7.15545654 C39.86492515 7.59257958 42.32008606 8.0288729 44.77539062 8.46435547 C48.52252831 9.12899591 52.26911746 9.79666126 56.015625 10.46484375 C58.43746911 10.89600691 60.85934306 11.32700246 63.28125 11.7578125 C64.38150513 11.9536795 65.48176025 12.14954651 66.61535645 12.35134888 C67.67105835 12.53849457 68.72676025 12.72564026 69.81445312 12.91845703 C70.83336639 13.09944443 71.85227966 13.28043182 72.90206909 13.46690369 C75.05122416 13.83673332 77.20350706 14.18865878 79.35794067 14.52638245 C80.97054276 14.77955482 80.97054276 14.77955482 82.61572266 15.0378418 C83.58144196 15.18424606 84.54716125 15.33065033 85.54214478 15.48149109 C88.78596186 16.16580644 90.56400822 17.32705119 92.875 19.6875 C93.66261719 20.48800781 94.45023438 21.28851562 95.26171875 22.11328125 C96.16535156 23.06589844 97.06898438 24.01851562 98 25 C99.25297725 26.18473745 100.50974599 27.36547313 101.76953125 28.54296875 C103.07784491 29.81793197 104.38384098 31.09527776 105.6875 32.375 C106.32478027 32.96240967 106.96206055 33.54981934 107.61865234 34.1550293 C110.17986325 36.77105762 111.86946193 38.68595234 112.23901367 42.40600586 C112.0014981 45.3199426 111.52722032 48.12433488 111 51 C110.69322659 53.40191346 110.39002873 55.80428549 110.08984375 58.20703125 C109.7107043 60.74293632 109.32651434 63.27809098 108.9375 65.8125 C108.68709961 67.73739258 108.68709961 67.73739258 108.43164062 69.70117188 C106.78493622 80.15203846 106.78493622 80.15203846 102.53515625 83.48046875 C101.04990571 84.36628021 99.53502171 85.20354571 98 86 C97.14011475 86.50378174 96.28022949 87.00756348 95.39428711 87.52661133 C92.45596704 89.23642621 89.48433984 90.87194539 86.5 92.5 C77.90983837 97.24278169 69.38935393 102.07751852 60.9375 107.0625 C52.00676174 112.3153586 42.97573127 117.33962658 33.83276367 122.21337891 C28.81481226 124.89675321 23.85744902 127.64413363 18.96484375 130.55078125 C18.00280029 131.11909668 17.04075684 131.68741211 16.04956055 132.27294922 C14.2237858 133.35851059 12.40575618 134.45723784 10.59692383 135.57080078 C9.78634521 136.05145996 8.9757666 136.53211914 8.140625 137.02734375 C7.43454102 137.45781006 6.72845703 137.88827637 6.00097656 138.33178711 C4 139 4 139 1.84594727 138.21362305 C-0.12193157 136.91983576 -1.66905249 135.56159291 -3.3125 133.875 C-3.84488281 133.33617187 -4.37726562 132.79734375 -4.92578125 132.2421875 C-6.07429943 131.00066314 -7.21299319 129.74893537 -8.30712891 128.45922852 C-14.38761394 121.31280769 -21.0972338 114.79376177 -27.75 108.1875 C-28.99372388 106.94880291 -30.23721526 105.70987234 -31.48046875 104.47070312 C-33.74954687 102.20973895 -36.01989615 99.95007002 -38.29199219 97.69213867 C-39.18563477 96.80373291 -40.07927734 95.91532715 -41 95 C-41.6177832 94.42419189 -42.23556641 93.84838379 -42.87207031 93.25512695 C-44 92 -44 92 -44 90 C-44.66 90 -45.32 90 -46 90 C-49.57235974 57.31042148 -49.57235974 57.31042148 -41.4375 46.6875 C-39.6453004 44.47102659 -37.80688687 42.3218748 -35.90234375 40.20117188 C-32.57814376 36.35479262 -29.80341988 32.12923327 -26.9375 27.9375 C-25.76740017 26.2848212 -24.59683005 24.63247527 -23.42578125 22.98046875 C-21.08141504 19.6278727 -18.87008752 16.22494758 -16.73046875 12.73828125 C-16.20654541 11.89982666 -15.68262207 11.06137207 -15.14282227 10.19750977 C-14.15670589 8.60738324 -13.19341174 7.00279212 -12.25756836 5.38256836 C-11.81421143 4.67366455 -11.37085449 3.96476074 -10.9140625 3.234375 C-10.5423291 2.60756836 -10.1705957 1.98076172 -9.78759766 1.33496094 C-6.80958944 -0.88898729 -3.52785707 -0.3445228 0 0 Z " fill="#FDFDFD" transform="translate(526,529)"/>
<path d="M0 0 C2.06214071 0.63618541 4.12797604 1.26051376 6.19726562 1.87304688 C9.19569349 2.76106477 12.18105106 3.68456221 15.16601562 4.61669922 C16.09101868 4.88366608 17.01602173 5.15063293 17.96905518 5.4256897 C22.24734389 6.80443685 24.30555916 7.47832792 26.74853516 11.37597656 C27.15069996 12.68180472 27.50989364 14.00123494 27.83789062 15.32763672 C28.19832458 16.52871567 28.19832458 16.52871567 28.56604004 17.75405884 C29.4041156 20.57986027 30.17667694 23.41811732 30.93945312 26.26513672 C31.22138519 27.30404053 31.50331726 28.34294434 31.79379272 29.41333008 C32.38618361 31.60121366 32.97603138 33.78978722 33.56347656 35.97900391 C34.46043848 39.31850709 35.36731344 42.65520351 36.27539062 45.99169922 C36.85150546 48.12435134 37.42704569 50.25715879 38.00195312 52.39013672 C38.27173981 53.38198975 38.54152649 54.37384277 38.81948853 55.39575195 C42.47526985 69.08240936 42.47526985 69.08240936 40.82617188 72.30419922 C40.27316406 72.84818359 39.72015625 73.39216797 39.15039062 73.95263672 C38.49941406 74.62294922 37.8484375 75.29326172 37.17773438 75.98388672 C36.40558594 76.75732422 35.6334375 77.53076172 34.83789062 78.32763672 C33.45875404 79.82119948 32.08004132 81.315179 30.70898438 82.81616211 C26.90680883 86.97510184 23.05991719 91.09278989 19.20898438 95.20654297 C18.6148877 95.84253418 18.02079102 96.47852539 17.40869141 97.13378906 C16.25416704 98.36910769 15.09765195 99.6025694 13.93896484 100.83398438 C11.05713966 103.83880704 11.05713966 103.83880704 8.83789062 107.32763672 C8.17789063 107.32763672 7.51789063 107.32763672 6.83789062 107.32763672 C6.59167969 107.88837891 6.34546875 108.44912109 6.09179688 109.02685547 C4.60334448 111.75800332 2.87688943 113.84590786 0.77539062 116.14013672 C0.06253906 116.95095703 -0.6503125 117.76177734 -1.38476562 118.59716797 C-5.52432723 121.17638849 -8.53600417 120.3429715 -13.16210938 119.32763672 C-17.04683504 118.40799469 -20.88341335 117.3510545 -24.72460938 116.26513672 C-27.01704576 115.63688885 -29.31004292 115.01068458 -31.60351562 114.38623047 C-33.42520264 113.88905518 -33.42520264 113.88905518 -35.28369141 113.38183594 C-41.53413078 111.68095044 -47.78835092 109.99801143 -54.05978394 108.37600708 C-55.44645687 108.01430745 -56.83155158 107.6464947 -58.21487427 107.27218628 C-66.10585718 105.14050918 -73.0279173 103.69500197 -81.16210938 105.32763672 C-82.72832031 105.59253906 -82.72832031 105.59253906 -84.32617188 105.86279297 C-85.54433594 106.12382813 -85.54433594 106.12382813 -86.78710938 106.39013672 C-88.24544271 106.70263672 -89.70377604 107.01513672 -91.16210938 107.32763672 C-94.58252752 99.90009526 -97.57262652 92.32150087 -100.53710938 84.70263672 C-104.30824389 74.96957687 -104.30824389 74.96957687 -108.24804688 65.30419922 C-108.53631348 64.61277832 -108.82458008 63.92135742 -109.12158203 63.20898438 C-109.85056205 61.47411099 -110.59171997 59.74436807 -111.33398438 58.01513672 C-112.22375502 55.12757916 -112.54785141 54.00296726 -111.16210938 51.32763672 C-109.00195312 49.57373047 -109.00195312 49.57373047 -106.09960938 47.76513672 C-105.01164063 47.07033203 -103.92367187 46.37552734 -102.80273438 45.65966797 C-101.91811523 45.09820068 -101.91811523 45.09820068 -101.015625 44.52539062 C-97.74202169 42.40996678 -94.55143612 40.17455049 -91.34960938 37.95263672 C-86.17556798 34.37818006 -80.97073476 30.85780817 -75.72460938 27.39013672 C-69.56586648 23.31470157 -63.53176062 19.07948644 -57.51367188 14.79980469 C-52.19269081 11.02672328 -46.80957267 7.36134379 -41.3515625 3.78930664 C-36.90206308 0.86917265 -32.65890761 -2.25736035 -28.50585938 -5.59033203 C-20.87487021 -9.11330536 -7.48343374 -2.32809959 0 0 Z " fill="#FCFCFC" transform="translate(681.162109375,638.67236328125)"/>
<path d="M0 0 C0.66 0 1.32 0 2 0 C2.0640654 0.5788092 2.1281308 1.15761841 2.19413757 1.75396729 C2.8884832 8.02596422 3.58377845 14.29785547 4.27947998 20.56970215 C4.55109326 23.01962551 4.82245631 25.46957662 5.09356689 27.91955566 C6.53672154 40.96029657 7.9901612 53.99939783 9.51171875 67.03125 C9.74458463 69.0361285 9.97741436 71.04101121 10.21020508 73.04589844 C10.64270623 76.76865928 11.08247696 80.4904671 11.52612305 84.21191406 C11.99343996 88.170983 12.42318236 92.13181549 12.80947876 96.09960938 C12.9700779 97.70153627 13.15982416 99.30050198 13.35620117 100.8984375 C13.94969746 108.85274525 9.9951936 115.57565944 6.5625 122.5 C5.94288665 123.78560445 5.32503373 125.07205892 4.70898438 126.359375 C2.83810125 130.25553991 0.93289631 134.13420738 -1 138 C-5.39750553 136.50402615 -8.86590741 134.11327383 -12.5625 131.375 C-13.81531402 130.46334091 -15.06923762 129.55320481 -16.32421875 128.64453125 C-16.94603027 128.19416504 -17.5678418 127.74379883 -18.20849609 127.27978516 C-21.66594687 124.80990822 -25.22367505 122.49232173 -28.76953125 120.15234375 C-34.68817239 116.20896858 -40.52971638 112.1521062 -46.38110352 108.10986328 C-47.91197473 107.06034729 -49.45564416 106.02957056 -51 105 C-51.43478394 103.17655945 -51.43478394 103.17655945 -51.51513672 100.94018555 C-51.55041473 100.10138351 -51.58569275 99.26258148 -51.62203979 98.39836121 C-51.64106354 97.4870192 -51.66008728 96.57567719 -51.6796875 95.63671875 C-51.70153107 94.69375443 -51.72337463 93.7507901 -51.74588013 92.7792511 C-51.78305337 90.77444806 -51.81101118 88.76945659 -51.83056641 86.7644043 C-51.87432223 83.73443343 -51.99289454 80.71329746 -52.11328125 77.68554688 C-52.31601872 68.21555249 -52.34740434 60.7078155 -45.7265625 53.42578125 C-43.86922789 51.551955 -41.94566284 49.78552112 -40 48 C-38.47010247 46.19154081 -36.9646263 44.36171451 -35.5 42.5 C-31.75212202 37.8954642 -27.93016556 33.35980809 -24.0859375 28.8359375 C-21.18755177 25.4194046 -18.328449 21.97495162 -15.5 18.5 C-14.00147612 16.66545992 -12.50136448 14.83221609 -11 13 C-10.52965332 12.42588379 -10.05930664 11.85176758 -9.57470703 11.26025391 C-8.0771439 9.43884094 -6.57089721 7.62494586 -5.0625 5.8125 C-4.58941406 5.235 -4.11632812 4.6575 -3.62890625 4.0625 C-2.46348849 2.67009681 -1.23658967 1.32959813 0 0 Z " fill="#FCFCFC" transform="translate(727,490)"/>
</svg>
